<svg xmlns="http://www.w3.org/2000/svg" xmlns:xlink="http://www.w3.org/1999/xlink" viewBox="0 0 550.91 298.9"><defs><style>.cls-1,.cls-5,.cls-6,.cls-7{fill:none;}.cls-1,.cls-2,.cls-3,.cls-4{stroke:#000;}.cls-1,.cls-2,.cls-3,.cls-4,.cls-5,.cls-6,.cls-7{stroke-miterlimit:10;}.cls-2{fill:url(#Namnlös_övertoning_5);}.cls-3{fill:#6d6062;}.cls-4{fill:#776264;}.cls-5,.cls-6,.cls-7{stroke:#776264;}.cls-6{stroke-width:0.75px;}.cls-7{stroke-width:0.5px;}.cls-8{font-size:93px;font-family:IowanOldStyle-Italic, Iowan Old Style;font-style:italic;letter-spacing:0.02em;}.cls-9{letter-spacing:0.04em;}</style><radialGradient id="Namnlös_övertoning_5" cx="293.6" cy="220.03" r="250.9" gradientUnits="userSpaceOnUse"><stop offset="0" stop-color="#e5b5ba"/><stop offset="1" stop-color="#bc7a80"/></radialGradient></defs><g id="Lager_2" data-name="Lager 2"><path class="cls-1" d="M65.11,106.12s22.12-16,67-22.74S243.29,72.32,286.92,72.32s127.18,2.46,162.2,8,56.53,12.9,71.89,23.35,17.21,33.79,17.21,33.79h21.5s5.53.62,6.14,8,0,89.09,0,89.09,1.85,8.6-3.68,9.22-22.74,0-22.74,0-.61,22.73-8,35.63-30.72,46.08-59.6,60.83-76.8,28.26-76.8,28.26-27,6.15-39.94-8S318.24,299,297.35,297.82s-54.06,52.84-54.06,52.84-21.5,22.93-42.39,19.14-91.55-32.05-108.14-44.34-40.55-53.45-43.62-67,0-14.74,0-14.74l-23.35-1.23s-3.07-3.07-4.3-14.13,0-76.81,0-76.81-1.23-8.6,9.21-9.83,18.44-1.84,18.44-1.84S56.72,111,65.11,106.12Z" transform="translate(-18.14 -71.82)"/><path class="cls-2" d="M108,99.82S178.44,85.14,216,84s165,.59,187.86,2.93S489.59,98.65,509,109.21s17,37.57,17,37.57h-8.81L516,232.5h10.07s1.67,24.07-4.2,37-24.07,39.92-41.69,49.9-77.49,36.4-90.4,37-29.94-7.05-48.14-34.05-35.14-40.51-48.1-38.75-42.31,33.46-51.7,45.79-13.51,25.31-30.53,27S118,327.6,105.06,318.21,65.14,270.07,62.2,253.63s0-18.79,0-18.79h10l-.58-87.47-7-.59s.59-22.3,7.63-28.76S108,99.82,108,99.82Z" transform="translate(-18.14 -71.82)"/><rect class="cls-3" x="504.32" y="80.83" width="32.29" height="71.08"/><rect class="cls-4" x="15.88" y="80.83" width="32.29" height="76.32"/></g><g id="Lager_3" data-name="Lager 3"><path class="cls-5" d="M87.76,298.72l6.1-18.31,1.59,2.65,16.45-46.95,4.24,5.3,10.61-30.51,4.78,4.51,17.24-40.85,1.6,2.65,8.22-21,10.88,22,2.38-1.85,10.35,27.06,1.72-.27L191.63,229l3-7.73,7.21,12,2,10,7.21,20.83s-.38,1.5.87,1.58,1.83-1.41,1.83-1.41l5.8,15.4,22.29,49.67-12.1,17.3s-9.47,10.89-18.43,9.74-61.28-16.69-78-24-28.61-13.89-33.51-18S87.76,298.72,87.76,298.72Z" transform="translate(-18.14 -71.82)"/><path class="cls-5" d="M284,287.55l-7.46-16.33h-1.89L265,253l-1.18,1.32-11.6-16L245.39,253l-1.78-1.87-15.74,27.45-5.8-3.66-2.51,4.8,22.29,49.67s18.15-21.76,23.29-26S284,287.55,284,287.55Z" transform="translate(-18.14 -71.82)"/><path class="cls-5" d="M159.64,158.38l7.68,29.89h3l1.7,21.67s5.46,5.65,6,6.79l.56,1.13a4.39,4.39,0,0,0,1.7,3.41c1.69,1.11,3.77-1.24,3.77-1.24l7.54,9" transform="translate(-18.14 -71.82)"/><line class="cls-6" x1="149.29" y1="102.33" x2="150.51" y2="116.08"/><line class="cls-6" x1="151.32" y1="106.45" x2="152.19" y2="116.45"/><line class="cls-6" x1="152.19" y1="105.28" x2="155.63" y2="139.95"/><line class="cls-6" x1="153.91" y1="106.13" x2="157.76" y2="142.26"/><line class="cls-6" x1="156.19" y1="111.08" x2="159.91" y2="144.9"/><line class="cls-6" x1="159" y1="118.43" x2="162.18" y2="149.45"/><line class="cls-6" x1="162.66" y1="127.99" x2="164.72" y2="149.23"/><line class="cls-6" x1="164.72" y1="131.55" x2="166.99" y2="149.45"/><line class="cls-6" x1="168.17" y1="139.39" x2="169.86" y2="152.86"/><line class="cls-6" x1="147.27" y1="98.25" x2="148.19" y2="112.6"/><line class="cls-6" x1="145.91" y1="95.5" x2="145.91" y2="103.76"/><line class="cls-6" x1="93.75" y1="164.28" x2="99.55" y2="164.28"/><line class="cls-6" x1="96.65" y1="164.28" x2="96.65" y2="167.91"/><line class="cls-6" x1="98" y1="164.28" x2="98.47" y2="168.24"/><polyline class="cls-6" points="113.39 143.59 114.88 144.9 114.88 145.6 114.88 148.21 114.88 149.45 114.88 150.81 114.88 159.31 128.99 192.65 131.37 189.42 134.6 197.24 137.49 195.03 146.66 216.12 152.19 210.68 155.83 214.76 159 214.42 149.91 202.85 149.57 198.09 145.66 194.18 145.15 189.42 119.3 159.66 115.9 150.93 113.86 148.58"/><line class="cls-7" x1="116.58" y1="152.67" x2="118.12" y2="166.98"/><line class="cls-7" x1="118.95" y1="158.77" x2="120.81" y2="173.34"/><line class="cls-7" x1="121.73" y1="162.45" x2="122.74" y2="177.89"/><line class="cls-7" x1="123.81" y1="164.85" x2="124.12" y2="181.15"/><line class="cls-7" x1="125.94" y1="167.3" x2="125.17" y2="183.63"/><line class="cls-7" x1="127.96" y1="169.63" x2="125.94" y2="185.43"/><line class="cls-7" x1="130.08" y1="172.07" x2="126.95" y2="187.83"/><line class="cls-7" x1="132.06" y1="174.35" x2="128.13" y2="190.61"/><line class="cls-7" x1="133.38" y1="175.87" x2="130.1" y2="191.15"/><line class="cls-7" x1="134.83" y1="177.53" x2="132.22" y2="191.47"/><line class="cls-7" x1="136.45" y1="179.41" x2="133.38" y2="194.28"/><line class="cls-7" x1="138.31" y1="181.55" x2="134.6" y2="197.24"/><line class="cls-7" x1="140.12" y1="183.63" x2="137.49" y2="195.03"/><line class="cls-7" x1="141.69" y1="185.43" x2="138.81" y2="198.06"/></g><g id="Lager_5" data-name="Lager 5"><text class="cls-8" transform="translate(64.97 131.77)">C<tspan class="cls-9" x="62.8" y="0">ANAZIE</tspan></text></g></svg>