<?xml version="1.0" encoding="utf-8"?>
<!-- Generator: Adobe Illustrator 24.2.1, SVG Export Plug-In . SVG Version: 6.00 Build 0)  -->
<svg version="1.1" id="Lager_1" xmlns="http://www.w3.org/2000/svg" xmlns:xlink="http://www.w3.org/1999/xlink" x="0px" y="0px"
	 viewBox="0 0 550.9 298.9" style="enable-background:new 0 0 550.9 298.9;" xml:space="preserve">
<style type="text/css">
	.st0{fill:none;stroke:#000000;stroke-miterlimit:10;}
	.st1{fill:url(#SVGID_1_);stroke:#000000;stroke-miterlimit:10;}
	.st2{fill:#6D6062;stroke:#000000;stroke-miterlimit:10;}
	.st3{fill:#776264;stroke:#000000;stroke-miterlimit:10;}
	.st4{fill:none;stroke:#776264;stroke-miterlimit:10;}
	.st5{fill:none;stroke:#776264;stroke-width:0.75;stroke-miterlimit:10;}
	.st6{fill:none;stroke:#776264;stroke-width:0.5;stroke-miterlimit:10;}
</style>
<g id="Lager_2_1_">
	<path class="st0" d="M47,34.3c0,0,22.1-16,67-22.7S225.1,0.5,268.8,0.5S396,3,431,8.5c35,5.5,56.5,12.9,71.9,23.3
		s17.2,33.8,17.2,33.8h21.5c0,0,5.5,0.6,6.1,8s0,89.1,0,89.1s1.8,8.6-3.7,9.2s-22.7,0-22.7,0s-0.6,22.7-8,35.6s-30.7,46.1-59.6,60.8
		c-28.9,14.8-76.8,28.3-76.8,28.3s-27,6.1-39.9-8s-36.9-61.5-57.8-62.7c-20.9-1.2-54.1,52.8-54.1,52.8s-21.5,22.9-42.4,19.1
		s-91.6-32-108.1-44.3c-16.6-12.3-40.5-53.5-43.6-67s0-14.7,0-14.7l-23.4-1.2c0,0-3.1-3.1-4.3-14.1s0-76.8,0-76.8s-1.2-8.6,9.2-9.8
		S31,68.1,31,68.1S38.6,39.2,47,34.3z"/>
	
		<radialGradient id="SVGID_1_" cx="293.5915" cy="79.8409" r="250.9157" gradientTransform="matrix(1 0 0 -1 -18.14 228.0698)" gradientUnits="userSpaceOnUse">
		<stop  offset="0" style="stop-color:#E5B5BA"/>
		<stop  offset="1" style="stop-color:#BC7A80"/>
	</radialGradient>
	<path class="st1" d="M89.9,28c0,0,70.4-14.7,108-15.8s165,0.6,187.9,2.9s85.7,11.7,105.1,22.3c19.4,10.6,17,37.6,17,37.6H499
		l-1.2,85.7h10.1c0,0,1.7,24.1-4.2,37s-24.1,39.9-41.7,49.9c-17.6,10-77.5,36.4-90.4,37c-12.9,0.6-29.9-7-48.1-34
		c-18.2-27-35.1-40.5-48.1-38.8c-13,1.8-42.3,33.5-51.7,45.8c-9.4,12.3-13.5,25.3-30.5,27s-93.3-28.8-106.3-38.2
		S47,198.3,44.1,181.8s0-18.8,0-18.8h10l-0.6-87.5l-7-0.6c0,0,0.6-22.3,7.6-28.8S89.9,28,89.9,28z"/>
	<rect x="504.3" y="80.8" class="st2" width="32.3" height="71.1"/>
	<rect x="15.9" y="80.8" class="st3" width="32.3" height="76.3"/>
</g>
<g id="Lager_3">
	<path class="st4" d="M69.6,226.9l6.1-18.3l1.6,2.6l16.4-46.9l4.2,5.3l10.6-30.5l4.8,4.5l17.2-40.9l1.6,2.6l8.2-21l10.9,22l2.4-1.9
		l10.4,27.1l1.7-0.3l7.7,25.9l3-7.7l7.2,12l2,10l7.2,20.8c0,0-0.4,1.5,0.9,1.6s1.8-1.4,1.8-1.4l5.8,15.4l22.3,49.7l-12.1,17.3
		c0,0-9.5,10.9-18.4,9.7s-61.3-16.7-78-24c-16.7-7.3-28.6-13.9-33.5-18S69.6,226.9,69.6,226.9z"/>
	<path class="st4" d="M265.9,215.7l-7.5-16.3h-1.9l-9.7-18.2l-1.2,1.3l-11.6-16l-6.8,14.7l-1.8-1.9l-15.7,27.5l-5.8-3.7l-2.5,4.8
		l22.3,49.7c0,0,18.1-21.8,23.3-26S265.9,215.7,265.9,215.7z"/>
	<path class="st4" d="M141.5,86.6l7.7,29.9h3l1.7,21.7c0,0,5.5,5.6,6,6.8l0.6,1.1c0,1.3,0.6,2.6,1.7,3.4c1.7,1.1,3.8-1.2,3.8-1.2
		l7.5,9"/>
	<line class="st5" x1="149.3" y1="102.3" x2="150.5" y2="116.1"/>
	<line class="st5" x1="151.3" y1="106.4" x2="152.2" y2="116.4"/>
	<line class="st5" x1="152.2" y1="105.3" x2="155.6" y2="139.9"/>
	<line class="st5" x1="153.9" y1="106.1" x2="157.8" y2="142.3"/>
	<line class="st5" x1="156.2" y1="111.1" x2="159.9" y2="144.9"/>
	<line class="st5" x1="159" y1="118.4" x2="162.2" y2="149.4"/>
	<line class="st5" x1="162.7" y1="128" x2="164.7" y2="149.2"/>
	<line class="st5" x1="164.7" y1="131.6" x2="167" y2="149.4"/>
	<line class="st5" x1="168.2" y1="139.4" x2="169.9" y2="152.9"/>
	<line class="st5" x1="147.3" y1="98.2" x2="148.2" y2="112.6"/>
	<line class="st5" x1="145.9" y1="95.5" x2="145.9" y2="103.8"/>
	<line class="st5" x1="93.8" y1="164.3" x2="99.6" y2="164.3"/>
	<line class="st5" x1="96.7" y1="164.3" x2="96.7" y2="167.9"/>
	<line class="st5" x1="98" y1="164.3" x2="98.5" y2="168.2"/>
	<polyline class="st5" points="113.4,143.6 114.9,144.9 114.9,145.6 114.9,148.2 114.9,149.4 114.9,150.8 114.9,159.3 129,192.6 
		131.4,189.4 134.6,197.2 137.5,195 146.7,216.1 152.2,210.7 155.8,214.8 159,214.4 149.9,202.9 149.6,198.1 145.7,194.2 
		145.1,189.4 119.3,159.7 115.9,150.9 113.9,148.6 	"/>
	<line class="st6" x1="116.6" y1="152.7" x2="118.1" y2="167"/>
	<line class="st6" x1="118.9" y1="158.8" x2="120.8" y2="173.3"/>
	<line class="st6" x1="121.7" y1="162.4" x2="122.7" y2="177.9"/>
	<line class="st6" x1="123.8" y1="164.9" x2="124.1" y2="181.1"/>
	<line class="st6" x1="125.9" y1="167.3" x2="125.2" y2="183.6"/>
	<line class="st6" x1="128" y1="169.6" x2="125.9" y2="185.4"/>
	<line class="st6" x1="130.1" y1="172.1" x2="126.9" y2="187.8"/>
	<line class="st6" x1="132.1" y1="174.4" x2="128.1" y2="190.6"/>
	<line class="st6" x1="133.4" y1="175.9" x2="130.1" y2="191.1"/>
	<line class="st6" x1="134.8" y1="177.5" x2="132.2" y2="191.5"/>
	<line class="st6" x1="136.4" y1="179.4" x2="133.4" y2="194.3"/>
	<line class="st6" x1="138.3" y1="181.6" x2="134.6" y2="197.2"/>
	<line class="st6" x1="140.1" y1="183.6" x2="137.5" y2="195"/>
	<line class="st6" x1="141.7" y1="185.4" x2="138.8" y2="198.1"/>
</g>
</svg>
