<?xml version="1.0" encoding="utf-8"?>
<!-- Generator: Adobe Illustrator 24.2.1, SVG Export Plug-In . SVG Version: 6.00 Build 0)  -->
<svg version="1.1" id="Lager_1" xmlns="http://www.w3.org/2000/svg" xmlns:xlink="http://www.w3.org/1999/xlink" x="0px" y="0px"
	 viewBox="0 0 550.9 298.9" style="enable-background:new 0 0 550.9 298.9;" xml:space="preserve">
<style type="text/css">
	.st0{fill:url(#SVGID_1_);stroke:#000000;stroke-miterlimit:10;}
	.st1{fill:#6D6062;stroke:#000000;stroke-miterlimit:10;}
	.st2{fill:#776264;stroke:#000000;stroke-miterlimit:10;}
	.st3{fill:none;stroke:#776264;stroke-miterlimit:10;}
	.st4{fill:none;stroke:#776264;stroke-width:0.75;stroke-miterlimit:10;}
	.st5{fill:none;stroke:#776264;stroke-width:0.5;stroke-miterlimit:10;}
	.st6{fill:none;stroke:#000000;stroke-miterlimit:10;}
</style>
<g id="Lager_2_1_">
	
		<radialGradient id="SVGID_1_" cx="293.6092" cy="762.0826" r="250.8857" gradientTransform="matrix(1 0 0 1 -18.14 -613.8201)" gradientUnits="userSpaceOnUse">
		<stop  offset="0" style="stop-color:#E5B5BA"/>
		<stop  offset="1" style="stop-color:#BC7A80"/>
	</radialGradient>
	<path class="st0" d="M89.9,28c0,0,70.4-14.7,108-15.8s165,0.6,187.9,2.9s85.7,11.7,105.1,22.3s17,37.6,17,37.6H499l-1.2,85.7h10.1
		c0,0,1.7,24.1-4.2,37s-24.1,39.9-41.7,49.9s-77.5,36.4-90.4,37s-29.9-7-48.1-34s-35.1-40.5-48.1-38.8c-13,1.8-42.3,33.5-51.7,45.8
		c-9.4,12.3-13.5,25.3-30.5,27s-93.3-28.8-106.3-38.2S47,198.3,44.1,181.8s0-18.8,0-18.8h10l-0.6-87.5l-7-0.6c0,0,0.6-22.3,7.6-28.8
		S89.9,28,89.9,28z"/>
	<rect x="504.3" y="80.8" class="st1" width="32.3" height="71.1"/>
	<rect x="15.9" y="80.8" class="st2" width="32.3" height="76.3"/>
</g>
<g id="Lager_3_2_">
	<path class="st3" d="M223.7,252.6c1.3-1.4,3.1-1.7,4.7-1.2c0.1-0.1,0.1-0.2,0.2-0.2c3-3.2,7.5-0.9,8.4,2.6c4-1,6.7,4.3,5,7.5
		c-0.5,0.9-1.1,1.9-1.8,2.8c0,0,0.1,0.1,0.1,0.1c0.8-0.7,1.5-1.2,2.1-1.6c2.3-1.5,4.7-0.7,6.1,1c3.9-6.7,14.3-9.2,21.9-9.7
		c0.9-0.5,1.8-1,2.7-1.4c8.5-7.7,18.5-13.8,28.7-19.2c0.2-1.2,1-2.2,2.5-2.9c0.1,0,0.1-0.1,0.2-0.1c-0.7-1.7-0.6-3.8,1.1-5.2
		c0.8-0.7,1.7-1.4,2.6-2c-2-2.6-1.2-7.1,2.5-8c5.4-1.4,10.9-1.4,16.4-1.1c2.4,0.1,4.1,1.8,4.7,3.8c2.4,0.2,4.9,0.5,7.3,0.7
		c5,0.6,10,1.5,15.1,2.2c1.5-0.5,2.9-1,4.4-1.4c2.3-0.7,4.9-1.3,7.4-1.5c1.5-0.6,3.4-0.6,4.8,0.1c0.9,0.4,1.6,0.9,2.2,1.4l-5.4-20
		l-1.6,3.2l-16.4-58.1l-4.2,6.6l-10.6-37.8l-4.8,5.6l-17.2-50.7l-1.6,3.2l-8.2-26l-10.9,27.3l-2.4-2.4l-10.4,33.6l-1.7-0.4
		l-7.7,32.1l-3-9.5l-7.2,14.9l-2,12.4l-7.2,25.8c0,0,0.4,1.9-0.9,2c-1.3,0.1-1.8-1.7-1.8-1.7l-5.8,19.1l-20.6,57
		C222.3,254.4,222.9,253.5,223.7,252.6z"/>
	<path class="st3" d="M221.5,255.4l20.7-57l-2.5-5.9l-5.8,4.6L218.2,163l-1.8,2.4l-6.8-18.2L198,166.9l-1.2-1.6l-9.7,22.5h-1.9
		l-7.5,20.2c0,0,13.7,14.5,18.9,19.7c4.7,4.7,19.8,27.1,22.8,31.5C220,257.9,220.7,256.6,221.5,255.4z"/>
	<path class="st3" d="M270.1,135.7l7.5-11.1c0,0,2.1,2.8,3.8,1.5c1.1-1,1.7-2.6,1.7-4.2l0.6-1.4c0.5-1.5,6-8.4,6-8.4l1.7-26.9h3
		l7.7-37"/>
	<line class="st4" x1="293.1" y1="84.7" x2="294.3" y2="67.6"/>
	<line class="st4" x1="291.4" y1="85" x2="292.3" y2="72.7"/>
	<line class="st4" x1="288" y1="114.2" x2="291.4" y2="71.3"/>
	<line class="st4" x1="285.8" y1="117.1" x2="289.7" y2="72.3"/>
	<line class="st4" x1="283.7" y1="120.4" x2="287.4" y2="78.5"/>
	<line class="st4" x1="281.4" y1="125.9" x2="284.6" y2="87.5"/>
	<line class="st4" x1="278.9" y1="125.7" x2="280.9" y2="99.4"/>
	<line class="st4" x1="276.6" y1="125.9" x2="278.9" y2="103.9"/>
	<line class="st4" x1="273.7" y1="130.3" x2="275.4" y2="113.5"/>
	<line class="st4" x1="295.4" y1="80.3" x2="296.3" y2="62.5"/>
	<line class="st4" x1="297.7" y1="69.4" x2="297.7" y2="59.2"/>
	<line class="st4" x1="344" y1="144.4" x2="349.8" y2="144.4"/>
	<line class="st4" x1="346.9" y1="148.8" x2="346.9" y2="144.4"/>
	<line class="st4" x1="345.1" y1="149.2" x2="345.6" y2="144.4"/>
	<polyline class="st4" points="329.7,124.9 327.7,127.8 324.3,138.7 298.5,175.5 297.9,181.4 294,186.3 293.7,192.2 284.6,206.5 
		287.8,206.9 291.4,201.9 296.9,208.6 306.1,182.4 309,185.1 312.2,175.5 314.6,179.4 328.7,138.2 328.7,127.7 328.7,125.9 
		328.7,124.4 328.7,121.2 328.7,120.4 330.2,118.7 	"/>
	<line class="st5" x1="325.5" y1="147.7" x2="327" y2="130"/>
	<line class="st5" x1="322.8" y1="155.5" x2="324.7" y2="137.6"/>
	<line class="st5" x1="320.9" y1="161.2" x2="321.9" y2="142"/>
	<line class="st5" x1="319.5" y1="165.2" x2="319.8" y2="145.1"/>
	<line class="st5" x1="318.4" y1="168.3" x2="317.7" y2="148.1"/>
	<line class="st5" x1="317.7" y1="170.5" x2="315.6" y2="151"/>
	<line class="st5" x1="316.7" y1="173.5" x2="313.5" y2="154.1"/>
	<line class="st5" x1="315.5" y1="177" x2="311.5" y2="156.9"/>
	<line class="st5" x1="313.5" y1="177.6" x2="310.2" y2="158.8"/>
	<line class="st5" x1="311.4" y1="178.1" x2="308.8" y2="160.7"/>
	<line class="st5" x1="310.2" y1="181.6" x2="307.2" y2="163.1"/>
	<line class="st5" x1="309" y1="185.1" x2="305.3" y2="165.8"/>
	<line class="st5" x1="306.1" y1="182.4" x2="303.5" y2="168.3"/>
	<line class="st5" x1="304.8" y1="186.3" x2="301.9" y2="170.5"/>
</g>
<g id="Lager_3">
	<path class="st3" d="M69.6,226.9l6.1-18.3l1.6,2.6l16.4-46.9l4.2,5.3l10.6-30.5l4.8,4.5l17.2-40.9l1.6,2.6l8.2-21l10.9,22l2.4-1.9
		l10.4,27.1l1.7-0.3l7.7,25.9l3-7.7l7.2,12l2,10l7.2,20.8c0,0-0.4,1.5,0.9,1.6s1.8-1.4,1.8-1.4l5.8,15.4l22.3,49.7l-12.1,17.3
		c0,0-9.5,10.9-18.4,9.7s-61.3-16.7-78-24c-16.7-7.3-28.6-13.9-33.5-18S69.6,226.9,69.6,226.9z"/>
	<path class="st3" d="M265.9,215.7l-7.5-16.3h-1.9l-9.7-18.2l-1.2,1.3l-11.6-16l-6.8,14.7l-1.8-1.9l-15.7,27.5l-5.8-3.7l-2.5,4.8
		l22.3,49.7c0,0,18.1-21.8,23.3-26S265.9,215.7,265.9,215.7z"/>
	<path class="st3" d="M141.5,86.6l7.7,29.9h3l1.7,21.7c0,0,5.5,5.6,6,6.8l0.6,1.1c0,1.3,0.6,2.6,1.7,3.4c1.7,1.1,3.8-1.2,3.8-1.2
		l7.5,9"/>
	<line class="st4" x1="149.3" y1="102.3" x2="150.5" y2="116.1"/>
	<line class="st4" x1="151.3" y1="106.4" x2="152.2" y2="116.4"/>
	<line class="st4" x1="152.2" y1="105.3" x2="155.6" y2="139.9"/>
	<line class="st4" x1="153.9" y1="106.1" x2="157.8" y2="142.3"/>
	<line class="st4" x1="156.2" y1="111.1" x2="159.9" y2="144.9"/>
	<line class="st4" x1="159" y1="118.4" x2="162.2" y2="149.4"/>
	<line class="st4" x1="162.7" y1="128" x2="164.7" y2="149.2"/>
	<line class="st4" x1="164.7" y1="131.6" x2="167" y2="149.4"/>
	<line class="st4" x1="168.2" y1="139.4" x2="169.9" y2="152.9"/>
	<line class="st4" x1="147.3" y1="98.2" x2="148.2" y2="112.6"/>
	<line class="st4" x1="145.9" y1="95.5" x2="145.9" y2="103.8"/>
	<line class="st4" x1="93.8" y1="164.3" x2="99.6" y2="164.3"/>
	<line class="st4" x1="96.7" y1="164.3" x2="96.7" y2="167.9"/>
	<line class="st4" x1="98" y1="164.3" x2="98.5" y2="168.2"/>
	<polyline class="st4" points="113.4,143.6 114.9,144.9 114.9,145.6 114.9,148.2 114.9,149.4 114.9,150.8 114.9,159.3 129,192.6 
		131.4,189.4 134.6,197.2 137.5,195 146.7,216.1 152.2,210.7 155.8,214.8 159,214.4 149.9,202.9 149.6,198.1 145.7,194.2 
		145.1,189.4 119.3,159.7 115.9,150.9 113.9,148.6 	"/>
	<line class="st5" x1="116.6" y1="152.7" x2="118.1" y2="167"/>
	<line class="st5" x1="118.9" y1="158.8" x2="120.8" y2="173.3"/>
	<line class="st5" x1="121.7" y1="162.4" x2="122.7" y2="177.9"/>
	<line class="st5" x1="123.8" y1="164.9" x2="124.1" y2="181.1"/>
	<line class="st5" x1="125.9" y1="167.3" x2="125.2" y2="183.6"/>
	<line class="st5" x1="128" y1="169.6" x2="125.9" y2="185.4"/>
	<line class="st5" x1="130.1" y1="172.1" x2="126.9" y2="187.8"/>
	<line class="st5" x1="132.1" y1="174.4" x2="128.1" y2="190.6"/>
	<line class="st5" x1="133.4" y1="175.9" x2="130.1" y2="191.1"/>
	<line class="st5" x1="134.8" y1="177.5" x2="132.2" y2="191.5"/>
	<line class="st5" x1="136.4" y1="179.4" x2="133.4" y2="194.3"/>
	<line class="st5" x1="138.3" y1="181.6" x2="134.6" y2="197.2"/>
	<line class="st5" x1="140.1" y1="183.6" x2="137.5" y2="195"/>
	<line class="st5" x1="141.7" y1="185.4" x2="138.8" y2="198.1"/>
</g>
<g id="Lager_3_1_">
	<path class="st3" d="M337.6,258.5c1.3-1.4,3.1-1.7,4.7-1.2c0.1-0.1,0.1-0.2,0.2-0.2c3-3.2,7.5-0.9,8.4,2.6c4-1,6.7,4.3,5,7.5
		c-0.5,0.9-1.1,1.9-1.8,2.8c0,0,0.1,0.1,0.1,0.1c0.8-0.7,1.5-1.2,2.1-1.6c2.3-1.5,4.7-0.7,6.1,1c3.9-6.7,14.3-9.2,21.9-9.7
		c0.9-0.5,1.8-1,2.7-1.4c8.5-7.7,18.5-13.8,28.7-19.2c0.2-1.2,1-2.2,2.5-2.9c0.1,0,0.1-0.1,0.2-0.1c-0.7-1.7-0.6-3.8,1.1-5.2
		c0.8-0.7,1.7-1.4,2.6-2c-2-2.6-1.2-7.1,2.5-8c5.4-1.4,10.9-1.4,16.4-1.1c2.4,0.1,4.1,1.8,4.7,3.8c2.4,0.2,4.9,0.5,7.3,0.7
		c5,0.6,10,1.5,15.1,2.2c1.5-0.5,2.9-1,4.4-1.4c2.3-0.7,4.9-1.3,7.4-1.5c1.5-0.6,3.4-0.6,4.8,0.1c0.9,0.4,1.6,0.9,2.2,1.4l-5.4-20
		l-1.6,3.2l-16.4-58.1l-4.2,6.6L449,119.1l-4.8,5.6L427,74l-1.6,3.2l-8.2-26l-10.9,27.3l-2.4-2.4l-10.4,33.6l-1.7-0.4l-7.7,32.1
		l-3-9.5l-7.2,14.9l-2,12.4l-7.2,25.8c0,0,0.4,1.9-0.9,2c-1.3,0.1-1.8-1.7-1.8-1.7l-5.8,19.1l-20.6,57
		C336.2,260.3,336.8,259.4,337.6,258.5z"/>
	<path class="st3" d="M335.4,261.3l20.7-57l-2.5-5.9l-5.8,4.6l-15.7-34.1l-1.8,2.4l-6.8-18.2l-11.6,19.8l-1.2-1.6l-9.7,22.5h-1.9
		l-7.5,20.2c0,0,13.7,14.5,18.9,19.7c4.7,4.7,19.8,27.1,22.8,31.5C333.9,263.8,334.6,262.5,335.4,261.3z"/>
	<path class="st3" d="M384,141.6l7.5-11.1c0,0,2.1,2.8,3.8,1.5c1.1-1,1.7-2.6,1.7-4.2l0.6-1.4c0.5-1.5,6-8.4,6-8.4l1.7-26.9h3
		l7.7-37"/>
	<line class="st4" x1="407" y1="90.6" x2="408.2" y2="73.5"/>
	<line class="st4" x1="405.3" y1="91" x2="406.2" y2="78.6"/>
	<line class="st4" x1="401.9" y1="120.1" x2="405.3" y2="77.2"/>
	<line class="st4" x1="399.7" y1="123" x2="403.6" y2="78.2"/>
	<line class="st4" x1="397.6" y1="126.3" x2="401.3" y2="84.4"/>
	<line class="st4" x1="395.3" y1="131.8" x2="398.5" y2="93.4"/>
	<line class="st4" x1="392.8" y1="131.6" x2="394.8" y2="105.3"/>
	<line class="st4" x1="390.5" y1="131.8" x2="392.8" y2="109.8"/>
	<line class="st4" x1="387.6" y1="136.2" x2="389.3" y2="119.4"/>
	<line class="st4" x1="409.3" y1="86.2" x2="410.2" y2="68.4"/>
	<line class="st4" x1="411.6" y1="75.3" x2="411.6" y2="65.1"/>
	<line class="st4" x1="457.9" y1="150.3" x2="463.7" y2="150.3"/>
	<line class="st4" x1="460.8" y1="154.8" x2="460.8" y2="150.3"/>
	<line class="st4" x1="459" y1="155.1" x2="459.5" y2="150.3"/>
	<polyline class="st4" points="443.6,130.8 441.6,133.7 438.2,144.6 412.4,181.4 411.8,187.3 407.9,192.2 407.6,198.1 398.5,212.4 
		401.7,212.9 405.3,207.8 410.8,214.5 420,188.3 422.9,191.1 426.1,181.4 428.5,185.4 442.6,144.1 442.6,133.6 442.6,131.8 
		442.6,130.4 442.6,127.1 442.6,126.3 444.1,124.7 	"/>
	<line class="st5" x1="439.4" y1="153.6" x2="440.9" y2="135.9"/>
	<line class="st5" x1="436.7" y1="161.4" x2="438.6" y2="143.5"/>
	<line class="st5" x1="434.8" y1="167.1" x2="435.8" y2="147.9"/>
	<line class="st5" x1="433.4" y1="171.1" x2="433.7" y2="151"/>
	<line class="st5" x1="432.3" y1="174.2" x2="431.6" y2="154"/>
	<line class="st5" x1="431.6" y1="176.4" x2="429.5" y2="156.9"/>
	<line class="st5" x1="430.6" y1="179.4" x2="427.4" y2="160"/>
	<line class="st5" x1="429.4" y1="182.9" x2="425.4" y2="162.8"/>
	<line class="st5" x1="427.4" y1="183.5" x2="424.1" y2="164.7"/>
	<line class="st5" x1="425.3" y1="184" x2="422.7" y2="166.6"/>
	<line class="st5" x1="424.1" y1="187.5" x2="421.1" y2="169"/>
	<line class="st5" x1="422.9" y1="191.1" x2="419.2" y2="171.7"/>
	<line class="st5" x1="420" y1="188.3" x2="417.4" y2="174.2"/>
	<line class="st5" x1="418.7" y1="192.2" x2="415.8" y2="176.4"/>
</g>
<path class="st6" d="M47,34.3c0,0,22.1-16,67-22.7S225.1,0.5,268.8,0.5S396,3,431,8.5s56.5,12.9,71.9,23.3s17.2,33.8,17.2,33.8h21.5
	c0,0,5.5,0.6,6.1,8s0,89.1,0,89.1s1.8,8.6-3.7,9.2s-22.7,0-22.7,0s-0.6,22.7-8,35.6s-30.7,46.1-59.6,60.8
	c-28.9,14.8-76.8,28.3-76.8,28.3s-27,6.1-39.9-8s-36.9-61.5-57.8-62.7s-54.1,52.8-54.1,52.8s-21.5,22.9-42.4,19.1
	s-91.6-32-108.1-44.3C58,241.2,34.1,200,31,186.5s0-14.7,0-14.7l-23.4-1.2c0,0-3.1-3.1-4.3-14.1s0-76.8,0-76.8s-1.2-8.6,9.2-9.8
	S31,68.1,31,68.1S38.6,39.2,47,34.3z"/>
</svg>
